<svg width="52" height="51" viewBox="0 0 52 51" fill="none" xmlns="http://www.w3.org/2000/svg">
<rect x="0.956421" y="0.617676" width="50.3423" height="50.3423" rx="25.1711" fill="#B52727"/>
<path d="M29.8094 29.4653L28.8516 28.8472C28.2016 29.325 27.3773 29.4862 26.6042 29.3075C24.8221 28.8954 25.5003 29.0522 23.8597 28.6729C24.0793 29.0568 24.2646 29.4594 24.417 29.889L26.0149 30.9204L24.8203 31.7844C24.8783 32.5316 24.8221 33.2882 24.6498 34.0333L24.116 36.342L29.8811 32.1722C30.32 31.8548 30.5738 31.3413 30.5594 30.7998C30.5451 30.2584 30.2644 29.759 29.8094 29.4653Z" fill="white"/>
<path d="M38.7661 20.0841L33.9441 20.2272L24.5467 15.0396L22.7792 12.0688L26.3652 8.80349C26.9233 8.29532 26.9638 7.43094 26.4556 6.87277C25.9473 6.31477 25.083 6.27424 24.5249 6.78241L20.1221 10.7915C19.6457 11.2253 19.537 11.933 19.8612 12.4897L22.9618 17.814L21.4753 20.4161C22.5305 20.9747 23.3497 21.8999 23.7752 23.0162L27.796 23.9459L29.4938 20.9738L32.989 22.8132C33.1855 22.9166 33.4039 22.9705 33.6255 22.9705C33.6389 22.9705 33.6524 22.9703 33.666 22.9699L38.8471 22.8163C39.6016 22.7938 40.1951 22.1641 40.1727 21.4097C40.1508 20.6698 39.5399 20.0653 38.7661 20.0841Z" fill="white"/>
<path d="M29.6267 16.2763C31.191 16.2763 32.4592 15.0081 32.4592 13.4438C32.4592 11.8795 31.191 10.6113 29.6267 10.6113C28.0623 10.6113 26.7942 11.8795 26.7942 13.4438C26.7942 15.0081 28.0623 16.2763 29.6267 16.2763Z" fill="white"/>
<path d="M20.6377 27.6366C21.176 27.3603 21.6052 26.9587 21.9082 26.47L26.9887 27.6449C27.5485 27.7743 28.1064 27.4253 28.2357 26.8664C28.3666 26.3003 28.0069 25.7464 27.4571 25.6194C26.9171 25.4946 22.9137 24.5687 22.3766 24.4445C22.2408 23.0978 21.2659 21.9561 19.9123 21.6365C18.547 21.3123 17.1532 21.9206 16.4371 23.071L11.355 21.8958C11.3536 21.8955 11.3523 21.8955 11.3508 21.8951C10.8502 21.7813 10.3295 22.0531 10.1465 22.5484C9.93066 23.1354 10.2743 23.7602 10.8568 23.913C10.8668 23.9156 10.8764 23.9191 10.8864 23.9214C11.4969 24.0626 15.1393 24.9048 15.9685 25.0966C15.9685 25.0967 15.9685 25.0968 15.9685 25.097C16.0315 25.71 16.2777 26.2865 16.5973 26.702C16.4041 26.7664 12.7392 27.2087 11.8456 31.0725L10.4181 37.2466C10.2541 37.9556 10.7042 38.6447 11.3901 38.8033L12.2653 39.0056L12.9839 35.8982C13.4228 34.0004 15.3187 32.8234 17.2086 33.2603C19.1051 33.6989 20.285 35.5884 19.8465 37.4851L19.1279 40.5925L20.003 40.7949C20.0031 40.7949 20.0032 40.7949 20.0033 40.795C20.6989 40.9557 21.3984 40.5215 21.5597 39.823L22.9874 33.6489C23.5283 31.3105 22.5458 28.9385 20.6377 27.6366ZM18.8308 26.2455C18.0174 26.0573 17.5086 25.2426 17.6967 24.4292C17.8852 23.6138 18.6976 23.1067 19.513 23.2952C20.3281 23.4836 20.8355 24.2961 20.6469 25.1114C20.4585 25.9264 19.6461 26.434 18.8308 26.2455Z" fill="white"/>
<path d="M16.8239 34.9226C15.8474 34.6967 14.8721 35.3053 14.6462 36.2823L13.1099 42.9261C12.8841 43.9029 13.4928 44.8779 14.4697 45.1038C15.4463 45.3297 16.4215 44.7211 16.6474 43.7441L18.1837 37.1004C18.4096 36.1234 17.8008 35.1484 16.8239 34.9226Z" fill="white"/>
</svg>
