<svg width="52" height="51" viewBox="0 0 52 51" fill="none" xmlns="http://www.w3.org/2000/svg">
<rect x="0.689697" y="0.617676" width="50.3423" height="50.3423" rx="25.1711" fill="#028478"/>
<path d="M11.3096 33.6133V16.7178C11.3096 16.1722 11.6236 15.4721 12.0556 15.0436C12.1736 14.9265 12.3306 14.8493 12.4486 14.7708H12.4876C14.3713 13.3307 16.8439 12.2794 19.6694 11.6951C21.1613 11.4223 22.731 11.2666 24.3786 11.2666C26.0262 11.2666 27.5972 11.4223 29.0879 11.6951C31.9134 12.2794 34.386 13.3307 36.2697 14.7708H36.3086C36.4267 14.8493 36.5447 14.9265 36.6615 15.0436C37.0935 15.4721 37.4464 16.1722 37.4464 16.7178V33.6133C37.4464 34.859 36.5824 35.8319 35.4447 36.1047V38.3632C35.4447 39.4146 34.5807 40.3102 33.522 40.3102C32.4232 40.3102 31.5592 39.4146 31.5592 38.3632V36.1832H17.1955V38.3632C17.1955 39.4146 16.2926 40.3102 15.2327 40.3102C14.1339 40.3102 13.2699 39.4146 13.2699 38.3632V36.1047C12.1322 35.8319 11.3071 34.859 11.3071 33.6133H11.3096ZM30.9314 14.189H17.8234C17.1164 14.189 16.5287 14.7733 16.5287 15.4733C16.5287 16.1348 17.1177 16.7191 17.8234 16.7191H30.9314C31.6384 16.7191 32.1871 16.1348 32.1871 15.4733C32.1871 14.772 31.6371 14.189 30.9314 14.189ZM15.234 27.1132H33.4819C34.1889 27.1132 34.7766 26.4904 34.7766 25.789V19.3662C34.7766 18.6648 34.1876 18.042 33.4819 18.042H15.234C14.527 18.042 13.9782 18.6648 13.9782 19.3662V25.789C13.9782 26.4904 14.5282 27.1132 15.234 27.1132ZM16.6467 33.6133C17.7845 33.6133 18.6874 32.679 18.6874 31.5504C18.6874 30.382 17.7845 29.4875 16.6467 29.4875C15.4688 29.4875 14.5672 30.3832 14.5672 31.5504C14.5672 32.679 15.4701 33.6133 16.6467 33.6133ZM32.0691 33.6133C33.247 33.6133 34.1889 32.679 34.1889 31.5504C34.1889 30.382 33.247 29.4875 32.0691 29.4875C30.9314 29.4875 30.0284 30.3832 30.0284 31.5504C30.0284 32.679 30.9314 33.6133 32.0691 33.6133Z" fill="white"/>
</svg>
