<svg width="61" height="61" viewBox="0 0 61 61" fill="none" xmlns="http://www.w3.org/2000/svg">
<path d="M0 30.5C0 13.6553 13.6553 0 30.5 0C47.3447 0 61 13.6553 61 30.5C61 47.3447 47.3447 61 30.5 61C13.6553 61 0 47.3447 0 30.5Z" fill="#286578"/>
<path d="M34.8821 25.9138C34.6337 25.7611 34.3084 25.8384 34.1557 26.0868L30.1456 32.6033C29.9927 32.8517 30.0701 33.1769 30.3185 33.3298C30.4047 33.3829 30.5003 33.4082 30.5947 33.4082C30.7721 33.4082 30.9452 33.3189 31.045 33.1569L35.0551 26.6403C35.2079 26.3919 35.1304 26.0666 34.8821 25.9138Z" fill="white"/>
<path d="M28.9206 30.9006C29.0232 31.048 29.1875 31.1271 29.3545 31.1271C29.4586 31.1271 29.5637 31.0963 29.6556 31.0325C29.895 30.8659 29.9541 30.5368 29.7875 30.2974L26.7799 25.974C26.6134 25.7347 26.2844 25.6757 26.0449 25.8421C25.8055 26.0087 25.7464 26.3377 25.913 26.5772L28.9206 30.9006Z" fill="white"/>
<path d="M30.5335 29.3277C30.5792 29.34 30.625 29.3458 30.6702 29.3458C30.9035 29.3458 31.117 29.19 31.1801 28.954L32.8719 22.6255C32.9472 22.3438 32.7799 22.0543 32.4981 21.9789C32.2161 21.9038 31.9269 22.071 31.8516 22.3527L30.1598 28.6811C30.0844 28.9629 30.2518 29.2523 30.5335 29.3277Z" fill="white"/>
<path d="M33.4905 31.3294C33.5811 31.519 33.7702 31.6297 33.9672 31.6297C34.0436 31.6297 34.1211 31.6131 34.1946 31.578L35.6357 30.8888C35.8988 30.7629 36.0101 30.4477 35.8843 30.1846C35.7586 29.9215 35.4432 29.8103 35.1802 29.936L33.7391 30.6252C33.476 30.7511 33.3647 31.0663 33.4905 31.3294Z" fill="white"/>
<path d="M28.8698 27.0375C28.9328 27.2738 29.1462 27.4297 29.3796 27.4297C29.4247 27.4297 29.4704 27.4239 29.516 27.4117C29.7978 27.3365 29.9653 27.0472 29.8901 26.7654L28.8877 23.0058C28.8125 22.7241 28.5232 22.5567 28.2414 22.6316C27.9597 22.7068 27.7922 22.9962 27.8673 23.2779L28.8698 27.0375Z" fill="white"/>
<path d="M29.9545 34.6567H29.919V34.1871C29.919 33.7626 29.5743 33.5427 29.2812 33.4523L28.8871 32.711C28.8334 32.61 28.7339 32.5413 28.6203 32.527L25.6053 32.1464L22.8096 27.7169C22.7451 27.6147 22.6327 27.5527 22.5119 27.5527H14.6834C14.539 27.5527 14.4093 27.6409 14.3562 27.7751L12.7296 31.8815H11.2018C10.4146 31.8815 9.96311 32.3329 9.96311 33.1201V34.679C9.60748 34.7646 9.34241 35.0854 9.34241 35.4669V36.0759C9.34241 36.5226 9.70587 36.886 10.1526 36.886H11.9974C12.1782 38.1025 13.2293 39.0391 14.4954 39.0391C15.7615 39.0391 16.8127 38.1025 16.9935 36.886L23.1135 36.8861C23.2942 38.1026 24.3454 39.0391 25.6113 39.0391C26.8775 39.0391 27.9287 38.1026 28.1095 36.8861H29.9544C30.4011 36.8861 30.7645 36.5226 30.7645 36.0759V35.4669C30.7646 35.0201 30.4012 34.6567 29.9545 34.6567ZM14.4954 37.4549C13.9762 37.4549 13.5539 37.0325 13.5539 36.5133C13.5539 35.994 13.9762 35.5716 14.4954 35.5716C15.0146 35.5716 15.437 35.994 15.437 36.5133C15.437 37.0326 15.0146 37.4549 14.4954 37.4549ZM25.6114 37.4549C25.0923 37.4549 24.6699 37.0325 24.6699 36.5133C24.6699 35.994 25.0923 35.5716 25.6114 35.5716C26.1307 35.5716 26.5532 35.994 26.5532 36.5133C26.5531 37.0326 26.1307 37.4549 25.6114 37.4549Z" fill="white"/>
<path d="M51.0369 34.679V33.1201C51.0369 32.3329 50.5854 31.8815 49.7982 31.8815H48.2703L46.6438 27.7751C46.5906 27.6409 46.4609 27.5527 46.3165 27.5527H39.5847C39.4639 27.5527 39.3515 27.6147 39.287 27.7169L36.4913 32.1464L33.4762 32.527C33.3627 32.5413 33.2633 32.6099 33.2095 32.711L32.8153 33.4523C32.5222 33.5426 32.1776 33.7625 32.1776 34.1871V34.6567H32.1421C31.6954 34.6567 31.3319 35.0202 31.3319 35.4669V36.0759C31.3319 36.5226 31.6953 36.8861 32.1421 36.8861H33.987C34.1678 38.1026 35.219 39.0391 36.4851 39.0391C37.7511 39.0391 38.8023 38.1026 38.983 36.8861L44.0064 36.886C44.1872 38.1025 45.2384 39.0391 46.5046 39.0391C47.7706 39.0391 48.8217 38.1025 49.0025 36.886H50.8474C51.2941 36.886 51.6575 36.5226 51.6575 36.0759V35.4669C51.6576 35.0854 51.3926 34.7646 51.0369 34.679ZM36.4852 37.4549C35.966 37.4549 35.5435 37.0325 35.5435 36.5133C35.5435 35.994 35.9659 35.5716 36.4852 35.5716C37.0044 35.5716 37.4267 35.994 37.4267 36.5133C37.4268 37.0326 37.0044 37.4549 36.4852 37.4549ZM46.5046 37.4549C45.9854 37.4549 45.563 37.0325 45.563 36.5133C45.563 35.994 45.9854 35.5716 46.5046 35.5716C47.0238 35.5716 47.4461 35.994 47.4461 36.5133C47.4461 37.0326 47.0238 37.4549 46.5046 37.4549Z" fill="white"/>
</svg>
