<svg width="30" height="30" viewBox="0 0 30 30" fill="none" xmlns="http://www.w3.org/2000/svg">
<rect width="30" height="30" rx="5" fill="#525FE1"/>
<path d="M23 11.75H14C12.8954 11.75 12 12.6454 12 13.75V22.75C12 23.8546 12.8954 24.75 14 24.75H23C24.1046 24.75 25 23.8546 25 22.75V13.75C25 12.6454 24.1046 11.75 23 11.75Z" stroke="white" stroke-width="2" stroke-linecap="round" stroke-linejoin="round"/>
<path d="M8 17.75H7C6.46957 17.75 5.96086 17.5393 5.58579 17.1642C5.21071 16.7891 5 16.2804 5 15.75V6.75C5 6.21957 5.21071 5.71086 5.58579 5.33579C5.96086 4.96071 6.46957 4.75 7 4.75H16C16.5304 4.75 17.0391 4.96071 17.4142 5.33579C17.7893 5.71086 18 6.21957 18 6.75V7.75" stroke="white" stroke-width="2" stroke-linecap="round" stroke-linejoin="round"/>
</svg>
