<svg width="62" height="61" viewBox="0 0 62 61" fill="none" xmlns="http://www.w3.org/2000/svg">
<path d="M0.800293 30.5C0.800293 13.6553 14.4556 0 31.3003 0C48.145 0 61.8003 13.6553 61.8003 30.5C61.8003 47.3447 48.145 61 31.3003 61C14.4556 61 0.800293 47.3447 0.800293 30.5Z" fill="#286578"/>
<path fill-rule="evenodd" clip-rule="evenodd" d="M23.4097 11.4402C14.5949 14.9191 8.98393 23.6042 9.48401 32.9958C9.98409 42.3874 16.4827 50.3741 25.6129 52.818C26.9831 53.1848 28.4352 53.1288 29.777 52.6575C35.1217 50.78 40.4664 48.9026 45.811 47.0252C47.1528 46.5539 48.321 45.6894 49.1608 44.5464C54.7569 36.9295 54.8333 26.6332 49.3502 18.992C43.8671 11.3507 34.0574 8.08249 25.0033 10.8805C24.4123 11.0875 23.9858 11.2335 23.4097 11.4402ZM25.8578 16.0586L25.8584 16.0584L25.8591 16.0581C25.9018 16.047 25.9419 16.0309 25.9799 16.0157L25.9806 16.0154L25.9812 16.0152C33.0994 13.5457 40.9773 16.0876 45.241 22.2296C45.1869 22.2669 45.187 22.2669 45.241 22.2296C45.5147 22.624 45.3341 23.1727 44.8777 23.333L30.2832 28.4596L15.6887 33.5862C15.2323 33.7466 14.7483 33.4314 14.7153 32.9525C14.7807 32.9478 14.7807 32.9477 14.7153 32.9525C14.2013 25.4933 18.7589 18.5831 25.8578 16.0586ZM16.9252 38.3947C16.9822 38.3736 17.0431 38.3591 17.1073 38.3523C23.1935 37.713 29.1623 40.2512 32.879 45.0592C33.1821 45.4513 33.0086 46.0271 32.5376 46.1926L28.0587 47.7659C27.7162 47.8862 27.3455 47.9005 26.9958 47.8069C22.4699 46.5955 18.6726 43.5508 16.5279 39.4139C16.3215 39.0158 16.5266 38.5429 16.9252 38.3947ZM46.92 27.8584C47.3237 27.7248 47.7795 27.9655 47.8674 28.4053C48.7809 32.9746 47.7219 37.7252 44.9479 41.5009C44.7335 41.7927 44.4353 42.0133 44.0928 42.1336L39.6139 43.7069C39.1429 43.8724 38.6474 43.5315 38.6387 43.036C38.5322 36.9599 41.6024 31.2465 46.7514 27.9392C46.8057 27.9043 46.8624 27.8775 46.92 27.8584Z" fill="white"/>
</svg>
