<svg width="51" height="51" viewBox="0 0 51 51" fill="none" xmlns="http://www.w3.org/2000/svg">
<rect x="0.223022" y="0.617676" width="50.3423" height="50.3423" rx="25.1711" fill="#4B274B"/>
<path d="M15.9142 25.5237C15.9142 25.5237 17.7547 25.8368 19.2571 26.8201C20.7592 27.8043 21.3359 29.5937 21.3359 29.5937H27.1511C27.1511 29.5937 28.0332 27.0419 29.4338 26.3904C30.8338 25.7367 33.0187 25.2992 33.0187 25.2992C33.0187 25.2992 32.9244 25.3306 32.9847 22.4986C34.926 20.7009 35.9285 18.4601 35.9285 15.7971C35.9286 10.2499 30.763 5.75293 24.3933 5.75293C18.024 5.75293 12.8604 10.2499 12.8604 15.797C12.8604 18.4378 14.031 20.8389 15.9421 22.6318C15.8457 24.5438 15.9142 25.5237 15.9142 25.5237ZM29.0942 14.8626C30.8609 14.8626 32.2922 16.5341 32.2922 18.5941C32.2922 20.6555 30.8601 22.3253 29.0942 22.3253C27.3276 22.3253 25.8962 20.6547 25.8962 18.5941C25.8962 16.5341 27.3285 14.8626 29.0942 14.8626ZM24.2361 22.8213L24.5902 23.2767C25.477 24.4177 25.8535 25.9555 25.87 26.0202L24.9435 26.2429C24.9399 26.2311 24.7037 25.2718 24.1907 24.3871C23.5942 25.3059 23.5305 26.1525 23.5296 26.1626L22.5791 26.0988C22.5843 26.0372 22.6926 24.5823 23.8571 23.2541L24.2361 22.8213ZM19.985 14.8626C21.752 14.8626 23.1825 16.5341 23.1825 18.5941C23.1825 20.6555 21.7512 22.3253 19.985 22.3253C18.2188 22.3253 16.7871 20.6547 16.7871 18.5941C16.7862 16.5341 18.2179 14.8626 19.985 14.8626Z" fill="white"/>
<path d="M36.5285 37.0289C35.2152 36.38 33.5829 36.8315 32.8755 38.0384C32.6992 38.3406 32.5961 38.6636 32.5638 38.9859L27.1843 36.3216L32.5297 33.5655C32.5786 33.8519 32.6782 34.1374 32.8424 34.4055C33.569 35.601 35.2134 36.028 36.5128 35.3574C37.8114 34.6867 38.2743 33.1742 37.5459 31.9787C37.0087 31.0966 35.9757 30.6355 34.9479 30.722C35.5635 29.9605 35.6761 28.9073 35.1391 28.0261C34.4117 26.8306 32.7691 26.4036 31.4687 27.0743C30.171 27.7449 29.7065 29.2575 30.4357 30.4539C30.6645 30.8276 30.9824 31.1262 31.3501 31.3411L24.3821 34.9355L17.3477 31.4519C17.711 31.232 18.025 30.928 18.2454 30.5507C18.9502 29.343 18.4585 27.8392 17.1477 27.1886C15.8365 26.5389 14.2009 26.9921 13.4957 28.1999C12.9753 29.0888 13.1076 30.1402 13.738 30.8913C12.7093 30.8214 11.6827 31.3 11.1631 32.1907C10.4575 33.3976 10.9497 34.9032 12.2605 35.5519C13.5726 36.2008 15.2078 35.7494 15.9125 34.5416C16.0728 34.2708 16.1675 33.9844 16.2085 33.6962L21.6054 36.3684L16.2758 39.1157C16.2374 38.7953 16.13 38.4748 15.9474 38.1743C15.2195 36.9796 13.5769 36.5518 12.2774 37.2224C10.9771 37.8931 10.5138 39.4056 11.2439 40.6012C11.7792 41.4832 12.8141 41.9452 13.8414 41.8595C13.2245 42.6211 13.1136 43.6734 13.6484 44.5545C14.3772 45.7509 16.0198 46.1771 17.3202 45.5064C18.6187 44.8357 19.0825 43.3233 18.3519 42.1277C18.1463 41.7871 17.8612 41.5103 17.5328 41.3016L24.4077 37.756L31.3491 41.1924C31.0242 41.4063 30.7438 41.6866 30.5439 42.0307C29.8383 43.2384 30.3291 44.7432 31.6416 45.3929C32.955 46.0426 34.5881 45.5893 35.2946 44.3824C35.816 43.4926 35.6823 42.4412 35.0518 41.6901C36.0796 41.7601 37.1057 41.2814 37.6263 40.3907C38.331 39.1841 37.8385 37.6786 36.5285 37.0289Z" fill="white"/>
</svg>
