<svg width="51" height="51" viewBox="0 0 51 51" fill="none" xmlns="http://www.w3.org/2000/svg">
<rect x="0.422852" y="0.617676" width="50.3423" height="50.3423" rx="25.1711" fill="#156CC3"/>
<path d="M37.4332 36.2573L31.098 26.5258C30.6399 25.8208 29.858 25.5043 29.0745 25.5043C28.9124 25.5043 28.5768 25.5082 28.214 25.5132C28.1857 25.4657 28.1562 25.4186 28.1085 25.3865L26.5128 24.3269C26.3287 24.2047 26.0897 24.2111 25.9132 24.341L24.5935 25.315L23.2729 24.341C23.095 24.2111 22.8573 24.2047 22.6718 24.3269L21.079 25.3865C21.034 25.4159 21.0054 25.4572 20.9792 25.5003C20.6033 25.5027 20.2529 25.5047 20.1054 25.5047C19.3255 25.5047 18.5472 25.8255 18.0918 26.5258L11.7565 36.2573C11.083 37.2903 11.3556 38.6718 12.3714 39.3713L13.7777 40.3407C14.6254 38.3219 16.0255 36.5957 17.7839 35.3355L18.1465 34.7778V35.0784C19.4208 34.2366 20.8673 33.6397 22.4203 33.3471C21.9588 32.323 21.5716 31.1031 21.2876 29.9532C20.9568 28.6114 20.7627 27.3679 20.7627 26.6637C20.7627 26.4028 20.7964 26.1514 20.8476 25.9063L22 29.7198C22.0597 29.9196 22.2324 30.0638 22.4393 30.0882C22.4601 30.0905 22.4805 30.0917 22.5003 30.0917C22.6845 30.0917 22.8587 29.9944 22.9534 29.8317L23.8518 28.2842L24.1045 28.5361C23.4997 29.3363 23.262 31.5884 23.1698 33.2326C23.6365 33.1754 24.1093 33.1374 24.5911 33.1374C25.074 33.1374 25.5483 33.1761 26.0164 33.2332C25.9241 31.5891 25.6865 29.337 25.0801 28.5361L25.3329 28.2827L26.2341 29.8316C26.3288 29.9943 26.5006 30.0917 26.6862 30.0917C26.706 30.0917 26.7268 30.0904 26.7468 30.0881C26.9535 30.0636 27.1263 29.9194 27.1875 29.7198L28.3392 25.9142C28.3886 26.1569 28.421 26.4058 28.421 26.6636C28.421 27.9723 27.765 31.1287 26.7643 33.3471C28.3202 33.6405 29.7691 34.2389 31.0434 35.0828V34.7792L31.4121 35.3442C33.1644 36.6051 34.5607 38.3284 35.4061 40.3437L36.8185 39.3713C37.834 38.6718 38.1053 37.2903 37.4332 36.2573ZM22.6533 28.2648L21.9826 26.0433L22.9472 25.4016L23.9067 26.1093L22.6533 28.2648ZM26.5327 28.2648L25.2806 26.1092L26.2392 25.4016L27.2048 26.0432L26.5327 28.2648Z" fill="white"/>
<path d="M21.3098 39.7917L22.4548 41.2984C23.0895 40.9158 23.8252 40.7061 24.5905 40.7061C25.3573 40.7061 26.0944 40.9157 26.7291 41.299L27.8741 39.7913C26.9813 38.9504 25.8226 38.4893 24.592 38.4893C23.3608 38.4893 22.2006 38.9511 21.3098 39.7917Z" fill="white"/>
<path d="M19.2839 19.2236C19.3228 21.2058 20.4488 22.9041 22.0895 23.7859C22.8387 24.1893 23.6837 24.4388 24.5948 24.4388C25.5045 24.4388 26.347 24.1898 27.0954 23.7872C28.7355 22.9064 29.8658 21.2085 29.9033 19.2256C28.55 20.1658 26.641 20.7769 24.5948 20.7769C22.5486 20.7769 20.6391 20.1658 19.2839 19.2236Z" fill="white"/>
<path d="M19.132 14.5167L19.1145 16.09C19.1174 17.3352 21.5692 18.9571 24.5948 18.9571C27.6203 18.9571 30.07 17.3352 30.0713 16.09L30.0552 14.5175C30.8513 14.3102 31.4691 14.0022 31.8647 13.5596C32.1747 13.2144 32.3527 12.7886 32.3527 12.2528C32.3529 9.8253 28.8762 6.71973 24.5949 6.71973C20.3098 6.71973 16.8369 9.8253 16.8369 12.2528C16.8369 12.7886 17.0139 13.2137 17.3225 13.5596C17.7183 14.0022 18.3369 14.3101 19.132 14.5167Z" fill="white"/>
<path d="M24.5906 34.5127C18.8865 34.5127 14.2454 39.154 14.2454 44.8581H16.8516C16.8516 44.8544 16.8516 44.8492 16.8516 44.8456V44.8432C16.9363 44.3326 17.3741 43.9606 17.8882 43.9606C17.8972 43.9606 17.9071 43.9614 17.917 43.9614L21.9433 44.0658C21.8675 44.3187 21.815 44.5812 21.815 44.8582H27.3686C27.3686 44.5812 27.3165 44.3187 27.2394 44.0658L31.2669 43.9614C31.2754 43.9614 31.284 43.9606 31.2944 43.9606C31.808 43.9606 32.2478 44.3326 32.3319 44.8432V44.8456C32.3319 44.8492 32.3319 44.8544 32.3319 44.8581H34.9358C34.9359 39.154 30.2963 34.5127 24.5906 34.5127ZM29.0565 40.5073L26.9104 43.3352C26.4129 42.5809 25.5613 42.0812 24.5905 42.0812C23.6221 42.0812 22.7696 42.5804 22.2731 43.3347L20.1274 40.5081C19.7615 40.0258 19.8074 39.3461 20.2358 38.9178C21.439 37.7153 23.0148 37.1139 24.5919 37.1139C26.1687 37.1139 27.7443 37.7153 28.9495 38.9188C29.3774 39.3468 29.4225 40.0252 29.0565 40.5073Z" fill="white"/>
</svg>
