<svg width="61" height="61" viewBox="0 0 61 61" fill="none" xmlns="http://www.w3.org/2000/svg">
<path d="M0 30.5C0 13.6553 13.6553 0 30.5 0C47.3447 0 61 13.6553 61 30.5C61 47.3447 47.3447 61 30.5 61C13.6553 61 0 47.3447 0 30.5Z" fill="#286578"/>
<path fill-rule="evenodd" clip-rule="evenodd" d="M40.6117 14.2107C39.8508 14.65 38.8779 14.3893 38.4386 13.6284C37.9993 12.8675 38.26 11.8946 39.0208 11.4553L46.3685 7.21313C46.9257 6.89143 47.6218 6.93705 48.1324 7.32875C48.6429 7.72043 48.8671 8.38106 48.7006 9.00256L46.5891 16.8827L50.6107 14.5608C51.3715 14.1215 52.3444 14.3822 52.7837 15.1431C53.2232 15.9039 52.9623 16.8769 52.2015 17.3161L44.8538 21.5583C44.2966 21.88 43.6005 21.8344 43.0901 21.4427C42.5796 21.051 42.3554 20.3904 42.5219 19.7689L44.6332 11.8888L40.6117 14.2107Z" fill="white"/>
<path fill-rule="evenodd" clip-rule="evenodd" d="M32.7592 17.3926C31.9984 16.9533 31.7375 15.9804 32.177 15.2195C32.6163 14.4586 33.5892 14.1979 34.35 14.6372L38.0237 16.7583C38.581 17.08 38.8896 17.7057 38.8056 18.3436C38.7216 18.9815 38.2615 19.5061 37.64 19.6726L35.555 20.2313L35.9027 20.4321C36.6635 20.8714 36.9244 21.8443 36.4849 22.6052C36.0456 23.3661 35.0727 23.6268 34.3119 23.1875L30.6381 21.0664C30.0809 20.7447 29.7723 20.119 29.8563 19.4811C29.9403 18.8432 30.4002 18.3186 31.0218 18.1521L33.1069 17.5934L32.7592 17.3926Z" fill="white"/>
<path fill-rule="evenodd" clip-rule="evenodd" d="M34.0569 11.267C32.2391 11.0765 30.3946 11.9444 29.421 13.6284C29.0399 14.2892 28.835 15.0017 28.7904 15.7143C28.6909 15.7806 28.5936 15.851 28.4994 15.9235C27.5299 16.6795 26.8681 17.7981 26.7024 19.0658C26.5657 20.0994 26.7728 21.1206 27.2543 21.9926C27.6656 22.7383 28.2778 23.3763 29.0473 23.8216L32.7208 25.9428C35.0035 27.2602 37.923 26.4792 39.2404 24.1965C39.5666 23.631 39.7645 23.0262 39.8421 22.4172C40.1569 23.0096 40.5991 23.542 41.1534 23.9666C42.685 25.1411 44.773 25.2798 46.4446 24.3146L48.5139 23.1194C49.7391 25.8019 50.4216 28.7825 50.4216 31.9227C50.4216 43.6364 40.9254 53.1336 29.2108 53.1336C17.4962 53.1336 8 43.6364 8 31.9227C8 20.2091 17.4962 10.7119 29.2108 10.7119C30.8782 10.7119 32.5002 10.9025 34.0569 11.267ZM17.4309 28.2151C17.9032 28.1818 18.3858 28.3578 18.7276 28.7369C19.7136 29.8347 20.7741 30.3319 21.787 30.3319C22.4178 30.3319 23.0672 30.1393 23.7051 29.7291C24.0925 29.4805 24.4746 29.1513 24.8464 28.7369C25.182 28.3642 25.6553 28.186 26.1214 28.213C26.4694 28.2335 26.8132 28.3682 27.0929 28.6189C27.7464 29.2071 27.7992 30.2119 27.2119 30.8664C25.7931 32.4426 23.9288 33.5135 21.787 33.5135C19.6452 33.5135 17.781 32.4426 16.3621 30.8664C15.7749 30.2119 15.8277 29.2071 16.4812 28.6189C16.7546 28.3725 17.0902 28.2378 17.4309 28.2151ZM33.5752 28.7369C32.988 28.0844 31.9822 28.0306 31.3287 28.6189C30.6752 29.2071 30.6224 30.2119 31.2097 30.8664C32.6285 32.4426 34.4927 33.5135 36.6346 33.5135C38.7765 33.5135 40.6407 32.4426 42.0595 30.8664C42.6468 30.2119 42.594 29.2071 41.9405 28.6189C41.287 28.0306 40.2812 28.0844 39.6941 28.7369C38.708 29.8347 37.6474 30.3319 36.6346 30.3319C35.6218 30.3319 34.5613 29.8347 33.5752 28.7369ZM31.3319 40.4071C31.3319 41.5794 30.3821 42.5281 29.2108 42.5281C28.0396 42.5281 27.0897 41.5794 27.0897 40.4071C27.0897 39.2347 28.0396 38.286 29.2108 38.286C30.3821 38.286 31.3319 39.2347 31.3319 40.4071Z" fill="white"/>
</svg>
