<svg width="51" height="51" viewBox="0 0 51 51" fill="none" xmlns="http://www.w3.org/2000/svg">
<rect x="0.422852" y="0.617676" width="50.3423" height="50.3423" rx="25.1711" fill="#E07E01"/>
<path d="M36.6658 40.1269C36.5813 41.246 35.61 42.0695 34.491 41.985C34.1321 41.9638 33.8786 41.8371 33.5618 41.6894C33.5618 41.6894 27.8185 37.7832 27.4807 37.5086C26.9106 37.0231 26.3405 36.4528 26.0871 35.6294C26.0026 35.3338 24.8413 31.3853 24.8413 31.3853L24.3199 42.4495H12.665L12.9465 37.9942H10.1874C8.51933 37.9942 7.16797 36.6429 7.16797 34.9748C7.16797 34.5736 7.23131 34.1935 7.37916 33.8556C7.37916 33.8556 10.5043 26.8455 11.0955 25.7052C11.9613 23.9948 13.4815 23.2558 15.6141 23.3192H21.2519L9.44845 31.7864L8.39264 34.2569C8.28712 34.4681 8.2448 34.7214 8.2448 34.9748C8.2448 36.0306 9.11057 36.8962 10.1662 36.8962H19.9848C21.6529 36.8962 23.0042 35.5449 23.0042 33.8768C23.0042 32.3988 21.9484 31.1529 20.5549 30.8996L23.4265 23.277H24.1022C25.6858 23.277 26.9316 24.3538 27.2906 25.5785L29.55 33.729C29.5921 33.8556 29.74 34.109 29.93 34.2569C30.1622 34.4257 35.8845 38.3533 35.8845 38.3533C36.4124 38.7543 36.7291 39.4089 36.6658 40.1269ZM19.3303 21.9256C21.8008 22.1157 23.9545 20.2787 24.1445 17.8082C24.3345 15.3377 22.4976 13.1841 20.0271 12.994C17.5566 12.804 15.4028 14.6409 15.2128 17.1113C15.0227 19.5818 16.8598 21.7356 19.3303 21.9256ZM21.9064 33.8556C21.9064 32.8632 21.1462 32.0609 20.196 31.9552L18.8024 35.7983L19.9849 35.7771C21.0406 35.7771 21.9064 34.9115 21.9064 33.8556ZM37.567 10.2692V7.59717H32.2243V10.2692H27.771V20.9863H42.0203V10.2692H37.567ZM33.3377 8.71051H36.4536V10.2692H33.3377V8.71051ZM34.8963 19.5147C32.7264 19.5147 30.9685 17.7555 30.9685 15.5869C30.9685 13.4183 32.7264 11.6605 34.8963 11.6605C37.0649 11.6605 38.8228 13.4183 38.8228 15.5869C38.8228 17.7555 37.0649 19.5147 34.8963 19.5147ZM37.3852 16.3263H35.6349V18.0767H34.1567V16.3263H32.4063V14.8481H34.1567V13.0978H35.6349V14.8481H37.3852V16.3263Z" fill="white"/>
</svg>
