<svg width="62" height="61" viewBox="0 0 62 61" fill="none" xmlns="http://www.w3.org/2000/svg">
<path d="M0.533691 30.5C0.533691 13.6553 14.189 0 31.0337 0C47.8784 0 61.5337 13.6553 61.5337 30.5C61.5337 47.3447 47.8784 61 31.0337 61C14.189 61 0.533691 47.3447 0.533691 30.5Z" fill="#286578"/>
<path d="M52 23.7365V16.9731H10.0674V23.7365H20.4707L18.4417 27.7945H12.0964C10.9777 27.7945 10.0674 28.7048 10.0674 29.8235V38.9729C10.0674 39.286 10.1411 39.5998 10.2811 39.8805L11.7934 42.9051C12.1397 43.597 12.8356 44.0264 13.6087 44.0264H30.8734C31.6471 44.0264 32.3424 43.597 32.6887 42.9051L34.201 39.8799C34.3416 39.5998 34.4154 39.286 34.4154 38.9729V29.8235C34.4154 28.7048 33.505 27.7945 32.3864 27.7945H24.012L26.041 23.7365H42.5313V27.7945H39.1497C38.031 27.7945 37.1207 28.7048 37.1207 29.8235V38.9729C37.1207 39.286 37.1944 39.5998 37.3344 39.8805L38.8467 42.9051C39.193 43.597 39.8889 44.0264 40.662 44.0264H48.458C49.2318 44.0264 49.927 43.597 50.2733 42.9051L51.7856 39.8799C51.9263 39.5998 52 39.286 52 38.9729V29.8235C52 28.7048 51.0897 27.7945 49.971 27.7945H46.5893V23.7365H52ZM11.42 18.3258H50.6473V22.3838H11.42V18.3258ZM24.9393 39.8886L22.2353 41.2413L19.53 39.8886L16.8253 41.2413L14.1206 39.8886L12.2628 40.8179L11.6771 39.6465L14.0902 38.68L16.8253 40.0483L19.53 38.6956L22.2353 40.0483L24.9393 38.6956L27.6439 40.0483L30.3797 38.68L32.805 39.6472L32.2179 40.822L30.3486 39.8886L27.6439 41.2413L24.9393 39.8886ZM27.4843 42.6738H22.3949L24.9393 41.4009L27.4843 42.6738ZM22.0757 42.6738H16.9856L19.5306 41.4009L22.0757 42.6738ZM30.3175 37.1989L27.6439 38.536L24.9393 37.1833L22.2353 38.536L19.53 37.1833L16.8253 38.536L14.1511 37.1989L11.42 38.2925V37.044L14.0902 35.9747L16.8253 37.3429L19.53 35.9903L22.2353 37.3429L24.9393 35.9903L27.6439 37.3429L30.3797 35.9747L33.0627 37.0447V38.2938L30.3175 37.1989ZM30.3175 34.4935L27.6439 35.8306L24.9393 34.478L22.2353 35.8306L19.53 34.478L16.8253 35.8306L14.1511 34.4935L11.42 35.5872V34.3387L14.0902 33.2694L16.8253 34.6376L19.53 33.2849L22.2353 34.6376L24.9393 33.2849L27.6439 34.6376L30.3797 33.2694L33.0627 34.3393V35.5885L30.3175 34.4935ZM33.0627 32.8832L30.3175 31.7875L27.6439 33.1246L24.9393 31.772L22.2353 33.1246L19.53 31.772L16.8253 33.1246L14.1511 31.7875L11.42 32.8818V31.6333L14.0902 30.564L16.8253 31.9323L19.53 30.5796L22.2353 31.9323L24.9393 30.5796L27.6439 31.9323L30.3797 30.564L33.0627 31.634V32.8832ZM14.2803 29.1471H19.3703L16.8253 30.42L14.2803 29.1471ZM27.6439 30.42L25.0995 29.1471H30.1896L27.6439 30.42ZM22.2353 30.42L19.6902 29.1471H24.7803L22.2353 30.42ZM12.0964 29.1471H13.9901L11.42 30.1765V29.8235C11.42 29.4508 11.723 29.1471 12.0964 29.1471ZM13.004 42.2998L12.8681 42.0279L14.1206 41.4009L16.6657 42.6738H13.6087C13.351 42.6738 13.1197 42.5304 13.004 42.2998ZM30.8741 42.6738H27.8042L30.3492 41.4009L31.6133 42.0319L31.4794 42.3004C31.3631 42.5304 31.1318 42.6738 30.8741 42.6738ZM33.0627 29.8235V30.1779L30.4791 29.1471H32.3864C32.7597 29.1471 33.0627 29.4508 33.0627 29.8235ZM22.4997 27.7945H19.954L21.983 23.7365H24.5287L22.4997 27.7945ZM50.6473 38.4122L50.3721 38.5434L47.5321 37.1908L44.6929 38.5434L41.853 37.1908L39.0131 38.5434L38.4733 38.2864V37.0792L39.0124 37.3362L41.8523 35.9835L44.6922 37.3362L47.5315 35.9835L50.3714 37.3362L50.6473 37.205V38.4122ZM50.2273 39.9725L49.7329 40.9606L47.4977 39.8954L44.6584 41.2481L41.8185 39.8954L39.4249 41.035L38.9008 39.9874L39.0124 40.0401L41.8523 38.6875L44.6922 40.0401L47.5315 38.6875L50.2273 39.9725ZM50.6473 35.7069L50.3721 35.8381L47.5321 34.4854L44.6929 35.8381L41.853 34.4854L39.0131 35.8381L38.4733 35.5811V34.3738L39.0124 34.6308L41.8523 33.2782L44.6922 34.6308L47.5315 33.2782L50.3714 34.6308L50.6473 34.4996V35.7069ZM50.6473 33.0016L50.3721 33.1328L47.5321 31.7801L44.6929 33.1328L41.853 31.7801L39.0131 33.1328L38.4733 32.8758V31.6685L39.0124 31.9255L41.8523 30.5728L44.6922 31.9255L47.5315 30.5728L50.3714 31.9255L50.6473 31.7943V33.0016ZM44.6922 30.4274L42.0052 29.1471H47.3793L44.6922 30.4274ZM39.1497 29.1471H41.7001L39.0124 30.4274L38.4733 30.1704V29.8235C38.4733 29.4508 38.7763 29.1471 39.1497 29.1471ZM40.0573 42.2998L40.0303 42.245L41.8192 41.3935L44.5062 42.6738H40.662C40.4043 42.6738 40.173 42.5304 40.0573 42.2998ZM48.4587 42.6738H44.8113L47.4983 41.3942L49.1283 42.1706L49.0634 42.2998C48.9477 42.5304 48.7164 42.6738 48.4587 42.6738ZM50.6473 29.8235V30.2962L50.3721 30.4274L47.6843 29.1471H49.971C50.3443 29.1471 50.6473 29.4508 50.6473 29.8235ZM45.2367 27.7945H43.884V23.7365H45.2367V27.7945Z" fill="white"/>
<path d="M14.1254 19.6787H12.7727V21.0314H14.1254V19.6787Z" fill="white"/>
<path d="M46.5893 19.6787H15.478V21.0314H46.5893V19.6787Z" fill="white"/>
<path d="M49.2946 19.6787H47.9419V21.0314H49.2946V19.6787Z" fill="white"/>
</svg>
