<svg width="14" height="13" viewBox="0 0 14 13" fill="none" xmlns="http://www.w3.org/2000/svg">
<path d="M13.3619 8.1873H12.7232H11.4654C11.1135 8.1873 10.8282 7.90199 10.8282 7.55008C10.8282 7.19816 11.1135 6.91286 11.4654 6.91286H12.6615H13.3064H13.9496C13.7643 5.49938 13.1562 4.21726 12.2569 3.19764L11.8079 3.64662L11.354 4.10031L10.6089 4.84534C10.4844 4.96973 10.3214 5.03191 10.1583 5.03191C9.99521 5.03191 9.83213 4.96967 9.70774 4.84526C9.45894 4.5964 9.45897 4.19292 9.70782 3.94407L10.4225 3.22957L10.879 2.77315L11.3311 2.3211C10.2956 1.505 9.0253 0.97467 7.6399 0.84867L7.64137 1.4884L7.64285 2.12986L7.64509 3.08646C7.64594 3.43837 7.36127 3.72436 7.00935 3.72515C7.00883 3.72515 7.00834 3.72515 7.00782 3.72515C6.65659 3.72515 6.3715 3.44086 6.37066 3.08944L6.36841 2.12855L6.36694 1.48767L6.36546 0.848206C4.97968 0.973139 3.70882 1.5026 2.67266 2.31804L3.12493 2.77012L3.58146 3.22662L4.29901 3.94404C4.54781 4.19284 4.54787 4.5963 4.29907 4.84518C4.17465 4.96965 4.01152 5.03188 3.84847 5.03188C3.68542 5.03188 3.52234 4.96965 3.39793 4.84523L2.64914 4.09656L2.19543 3.64293L1.74631 3.19394C0.84525 4.21417 0.235895 5.49765 0.0504219 6.91286H0.693574H1.33848H2.54155C2.89346 6.91286 3.17877 7.19816 3.17877 7.55008C3.17877 7.90199 2.89346 8.1873 2.54155 8.1873H1.27682H0.638066H0C0.0675117 9.51667 0.509387 10.7879 1.28888 11.8839C1.40842 12.0519 1.60188 12.1518 1.80816 12.1518H12.1916C12.3978 12.1518 12.5912 12.052 12.7108 11.884C13.4905 10.7885 13.9325 9.51721 14 8.1873H13.3619ZM9.10511 6.7465L8.0777 8.04051C8.10034 8.12747 8.11223 8.21784 8.11223 8.31007C8.11229 8.59362 8.00179 8.86036 7.80123 9.06101C7.60063 9.26155 7.33398 9.37196 7.05034 9.37196C6.46477 9.37196 5.98828 8.89564 5.98814 8.3101C5.98828 7.72428 6.46477 7.2479 7.05034 7.2479C7.06002 7.2479 7.06962 7.24837 7.07927 7.24861L8.10696 5.95405C8.32579 5.67842 8.72662 5.63238 9.00225 5.85121C9.2779 6.07004 9.32395 6.4709 9.10511 6.7465Z" fill="white"/>
</svg>
