<svg width="17" height="19" viewBox="0 0 17 19" fill="none" xmlns="http://www.w3.org/2000/svg">
<path d="M12.6948 7.64453L13.392 10.0511L11.8543 9.60576L12.6948 7.64453ZM0.431875 16.1259L8.11267 13.6674V2.72568L0.431875 5.19531V16.1259ZM14.1667 12.7656L15.2957 13.094L13.2913 6.12861L12.1855 5.8002L9.79563 11.4835L10.9247 11.8119L11.4224 10.6448L13.758 11.3332L14.1667 12.7656ZM8.59877 2.56611L14.9394 4.51621V0.487988L8.59877 2.56611ZM12.0422 16.5935L13.791 16.7308L13.1925 18.4267L12.749 17.7271C11.7904 18.3135 10.7717 18.6957 9.69492 18.872C9.26692 18.9573 8.93188 19 8.68786 19H7.75826C7.17532 19 6.43939 18.8627 5.55047 18.5862C4.66154 18.3098 3.98371 18.011 3.51891 17.6845C3.46081 17.6344 3.42982 17.5787 3.42982 17.5156C3.42982 17.46 3.44919 17.4117 3.48599 17.3728C3.52278 17.3338 3.5712 17.3152 3.6293 17.3152C3.65835 17.3152 3.72613 17.3412 3.82878 17.395C3.93142 17.4488 4.04375 17.5063 4.16576 17.5694C4.28777 17.6325 4.36329 17.6715 4.39234 17.6863C4.93074 17.948 5.51948 18.165 6.15664 18.3376C6.79574 18.5102 7.37674 18.5974 7.89964 18.5974C8.60071 18.5974 9.21656 18.5454 9.74721 18.4434C10.2779 18.3413 10.8569 18.1632 11.4844 17.9071C11.5948 17.857 11.7071 17.8032 11.8214 17.742C11.9356 17.6808 12.0615 17.614 12.1971 17.5397C12.3327 17.4655 12.4392 17.408 12.5128 17.3653L12.0422 16.5935ZM17 5.15264V16.5935L8.43415 13.9847C8.33151 14.0273 6.9468 14.4782 4.28389 15.3373C1.62098 16.1964 0.263386 16.625 0.211096 16.625C0.114263 16.625 0.0484165 16.5786 0.0116199 16.4877C0.0116199 16.4803 0.00774664 16.4691 0 16.4562V5.02646C0.0213033 4.96338 0.0367966 4.92813 0.0445432 4.9207C0.0813398 4.87803 0.154933 4.83906 0.265322 4.80381C1.04773 4.55703 1.59774 4.37891 1.91342 4.27314V0.202246L8.09136 2.30078C8.10686 2.30078 8.69754 2.10596 9.86728 1.71816C11.037 1.33037 12.2029 0.946289 13.3649 0.567773C14.5269 0.189258 15.1214 0 15.1505 0C15.2977 0 15.3713 0.0742188 15.3713 0.222656V4.65537L17 5.15264Z" fill="#525FE1"/>
<path d="M2.68066 10.0117L1.93359 8.88379L1.96289 8.78125C2.49756 8.39307 3.07617 8.16602 3.64746 8.16602C4.50439 8.16602 5.01709 8.51025 5.55176 9.25732C5.88135 9.71875 6.02783 10.1143 6.02783 10.583C6.02783 10.9053 5.896 11.2422 5.64697 11.5645C5.76416 11.667 5.8667 11.7842 5.96924 11.916C6.09375 12.0479 6.40137 12.0698 6.70898 12.0698C7.12646 12.0698 7.52197 11.938 7.88818 11.7256V9.42578H6.74561L6.24756 8.42236L6.3501 8.2832H9.97559L10.4736 9.28662L10.3711 9.42578H9.09668L9.12598 15.9224L9.02344 15.9956L7.85156 15.6587L7.87354 13.2197C7.77832 13.2344 7.71973 13.2344 7.62451 13.2344C7.23633 13.2344 6.81152 13.1099 6.52588 12.9268L6.46729 12.9487C6.50391 13.1172 6.52588 13.2856 6.52588 13.4834C6.52588 14.4868 5.71289 15.2559 4.59229 15.2559C3.10547 15.2559 1.92627 13.9888 0.878906 11.9087L0.893555 11.8428L1.42822 11.4766C2.28516 13.022 2.90771 13.9082 4.13086 13.9082C4.76074 13.9082 5.51514 13.4395 5.51514 12.7217C5.51514 12.3408 5.29541 12.0991 4.79004 12.0991C4.42383 12.0991 3.9624 12.231 3.42773 12.4434L2.68799 11.2935L2.73193 11.1543C3.25195 10.9712 3.7793 10.8247 4.30664 10.7295C4.79004 10.5391 5.04639 10.2388 5.04639 9.89453C5.04639 9.63818 4.93652 9.38916 4.37988 9.38916C3.91113 9.38916 3.34717 9.60889 2.68066 10.0117Z" fill="#525FE1"/>
</svg>
