<svg width="38" height="27" viewBox="0 0 38 27" fill="none" xmlns="http://www.w3.org/2000/svg">
<g clip-path="url(#clip0_1_2483)">
<path d="M2.64165 0H35.6974C36.2866 0 36.822 0.241269 37.2097 0.628698C37.5978 1.01674 37.8387 1.55306 37.8387 2.14165V24.8584C37.8387 25.3023 37.7017 25.7159 37.4677 26.0589C37.4249 26.1698 37.358 26.2731 37.2666 26.361C37.2055 26.4184 37.1383 26.4655 37.0672 26.501C36.695 26.8113 36.2167 27.0003 35.6974 27.0003H2.64165C2.05306 27.0003 1.51704 26.7593 1.1287 26.3713C0.741269 25.9836 0.5 25.4482 0.5 24.8584V2.14165C0.5 1.55184 0.740662 1.01613 1.12839 0.628698C1.51613 0.240662 2.05184 0 2.64165 0ZM2.1427 23.9574L13.7273 12.3436L2.1427 2.89827V23.9574ZM15.0032 13.3838L3.05977 25.3573H35.1787L23.7649 13.3856L20.0021 16.5917C19.7071 16.8439 19.2652 16.8582 18.9529 16.6047L15.0032 13.3838ZM25.0141 12.3215L36.196 24.0501V2.79496L25.0141 12.3215ZM3.19438 1.6427L19.4576 14.9031L35.0225 1.6427H3.19438Z" fill="black" fill-opacity="0.5"/>
</g>
<defs>
<clipPath id="clip0_1_2483">
<rect width="37.3387" height="27" fill="white" transform="translate(0.5)"/>
</clipPath>
</defs>
</svg>
