<svg width="52" height="51" viewBox="0 0 52 51" fill="none" xmlns="http://www.w3.org/2000/svg">
<rect x="0.689697" y="0.617676" width="50.3423" height="50.3423" rx="25.1711" fill="#581681"/>
<path d="M34.2957 18.14H32.0367C31.8874 16.7975 31.4313 15.5408 30.7077 14.568H34.2956C35.155 14.568 35.8509 13.91 35.8509 13.029C35.8509 12.1475 35.1549 11.4713 34.2956 11.4713H22.1295C22.0849 11.4713 22.042 11.4697 21.9963 11.4697C21.9667 11.4697 21.9371 11.4713 21.9075 11.4713H16.1076C15.2482 11.4713 14.5522 12.148 14.5522 13.029C14.5522 13.9099 15.2482 14.568 16.1076 14.568H23.005C25.1833 14.7306 27.465 15.5948 28.066 18.14H16.1076C15.2482 18.14 14.5522 18.8542 14.5522 19.7355C14.5522 20.6165 15.2482 21.3311 16.1076 21.3311H27.911C27.1766 23.3425 25.1595 24.5693 22.356 24.5693H19.2627H19.2537H17.45C16.6122 24.5693 15.933 25.2658 15.933 26.1249C15.933 26.9842 16.6122 27.6807 17.45 27.6807H19.2323C19.2397 27.6816 19.2463 27.6852 19.2537 27.6852H22.0685C25.1267 27.8044 26.4869 29.1643 27.2667 32.8849C27.8769 35.6485 28.3262 37.4486 28.6795 38.5267C28.9443 39.5242 29.4682 41.027 30.377 41.9247C30.7325 42.2751 31.1908 42.4496 31.6477 42.4496C32.1285 42.4496 32.6092 42.2567 32.969 41.8731C33.6284 41.1703 33.6404 40.0828 33.0361 39.3559C33.0333 39.3473 33.0346 39.3379 33.0302 39.3293C32.4723 38.268 31.7974 35.4212 30.974 31.8104C30.3195 28.8743 29.0968 27.0456 27.244 26.2336C29.5705 25.3177 31.1709 23.566 31.7982 21.3307H34.2955C35.1549 21.3307 35.8508 20.6161 35.8508 19.7351C35.8508 18.8541 35.1551 18.14 34.2957 18.14Z" fill="white"/>
</svg>
