<svg width="27" height="27" viewBox="0 0 27 27" fill="none" xmlns="http://www.w3.org/2000/svg">
<g clip-path="url(#clip0_1_2476)">
<path d="M17.1614 23.8599C17.0777 24.3004 16.9301 24.7047 16.7174 25.073C16.4976 25.4529 16.21 25.7935 15.8547 26.0943C15.4994 26.3947 15.1118 26.621 14.6939 26.7724C14.2751 26.9238 13.8295 26.9998 13.3588 26.9998C12.888 26.9998 12.4426 26.9238 12.0236 26.7724C11.6054 26.6212 11.2183 26.3947 10.863 26.0943C10.5074 25.7935 10.2198 25.4527 10.0001 25.073C9.78081 24.6933 9.63052 24.2754 9.54878 23.8192C9.50901 23.5962 9.65754 23.3826 9.88057 23.3426C9.8876 23.3416 9.95286 23.3352 9.95286 23.3347H16.7646C16.9925 23.3347 17.177 23.5193 17.177 23.7467C17.1768 23.7861 17.1718 23.8238 17.1614 23.8599ZM15.5289 1.50908C15.8631 1.59631 16.1876 1.70222 16.5022 1.82636C16.9657 2.00917 17.4108 2.22978 17.8373 2.48708C17.854 2.49741 17.8703 2.50839 17.8863 2.5196C18.2952 2.77097 18.6756 3.04716 19.0265 3.34841C19.3934 3.6635 19.7355 4.01176 20.0526 4.39299L20.0552 4.39584H20.0557C20.3655 4.77114 20.6428 5.1717 20.8878 5.59599C21.1336 6.02248 21.3439 6.46655 21.5177 6.92666L21.5186 6.92644C21.6983 7.39973 21.8328 7.88488 21.9216 8.38146C22.0108 8.88046 22.055 9.39199 22.055 9.91604C22.055 10.9518 22.055 11.5106 22.0554 11.5785C22.0576 12.1096 22.0604 12.6286 22.0644 13.1352V13.1405C22.0662 13.5982 22.0963 14.0588 22.1532 14.5202C22.2094 14.9766 22.2918 15.4173 22.3982 15.8416L22.399 15.8414C22.5058 16.2598 22.6502 16.6621 22.8313 17.0484C23.0171 17.4461 23.2432 17.835 23.5093 18.2153L23.5106 18.2145C23.7732 18.5873 24.1019 18.9556 24.4968 19.319C24.9044 19.6945 25.3779 20.0623 25.9164 20.4227C26.2254 20.6297 26.3082 21.048 26.101 21.3572C25.9714 21.5508 25.7584 21.6556 25.5414 21.6558V21.658H19.4501H13.3588H7.26714H1.17588C0.802563 21.658 0.5 21.3554 0.5 20.9823C0.5 20.7369 0.630737 20.5222 0.826294 20.4038C1.37363 20.0333 1.84363 19.6668 2.23606 19.3034C2.62651 18.9417 2.95347 18.5717 3.21648 18.1927C3.22439 18.1815 3.2323 18.1707 3.24065 18.1602C3.49487 17.788 3.7124 17.4087 3.89258 17.0235C4.07583 16.6318 4.22283 16.2277 4.33291 15.8113C4.33511 15.8025 4.33752 15.7939 4.34016 15.7854C4.44453 15.3811 4.52407 14.955 4.57922 14.5083C4.63459 14.0585 4.66228 13.594 4.66228 13.1159V9.91604C4.66228 9.40188 4.70842 8.88969 4.80049 8.38081C4.89255 7.87258 5.02812 7.38457 5.20676 6.91853C5.38452 6.45249 5.59766 6.00578 5.84507 5.57907C6.09094 5.15522 6.37175 4.75224 6.68618 4.37146L6.68992 4.36706L6.68904 4.36618C7.00281 3.99111 7.34712 3.64284 7.72197 3.3227C8.09177 3.00695 8.49102 2.71999 8.91948 2.46269C9.35344 2.20363 9.80168 1.9861 10.266 1.80988C10.5887 1.68728 10.9205 1.58444 11.2611 1.50117C11.3773 1.09445 11.5769 0.765303 11.8592 0.513276C12.249 0.165229 12.7629 -0.00549826 13.4006 -5.09358e-06C14.0323 0.00548807 14.5418 0.18039 14.9281 0.525361C15.2114 0.778266 15.4117 1.1061 15.5289 1.50908ZM16.0114 3.08276C15.6376 2.93554 15.2564 2.81953 14.8681 2.73625C14.5691 2.69758 14.3228 2.46093 14.2845 2.14804C14.2481 1.85339 14.1635 1.64685 14.031 1.52863C13.898 1.40976 13.6843 1.34912 13.39 1.34648C13.0978 1.34384 12.8866 1.40053 12.7568 1.51655C12.625 1.63432 12.5415 1.84284 12.5063 2.14277H12.5056C12.4731 2.42907 12.258 2.67319 11.9598 2.72878C11.5391 2.80854 11.1332 2.9228 10.741 3.07177C10.3495 3.22031 9.97307 3.4029 9.61096 3.61889C9.25039 3.83532 8.91289 4.07834 8.59824 4.34685C8.28403 4.61513 7.99246 4.91066 7.72373 5.2319L7.72285 5.23125C7.4605 5.54963 7.22319 5.89108 7.01226 6.25495C6.80461 6.61289 6.62312 6.99455 6.46887 7.39907C6.31462 7.80117 6.20037 8.2081 6.1261 8.61855C6.05139 9.03032 6.01426 9.46318 6.01426 9.91625V13.1164C6.01426 13.6463 5.98284 14.1653 5.92043 14.6727C5.86023 15.1613 5.76816 15.6456 5.64446 16.124C5.64226 16.1343 5.63984 16.1448 5.63721 16.1552C5.50823 16.6427 5.33311 17.1224 5.11228 17.5942C4.89915 18.0497 4.64536 18.4926 4.35181 18.9226C4.34346 18.9367 4.33467 18.9505 4.32522 18.9642C4.01584 19.4093 3.62385 19.8516 3.14924 20.2911L3.1321 20.3067H7.26714H13.3588H19.4501H23.5781C23.1143 19.8791 22.724 19.4405 22.4074 18.9907L22.4083 18.9899L22.4074 18.9881C22.0963 18.5434 21.8306 18.0868 21.6118 17.619C21.3881 17.1417 21.2143 16.6601 21.0899 16.1743L21.0904 16.1741L21.0899 16.1717C20.968 15.6878 20.8748 15.1915 20.8122 14.6839C20.7526 14.1985 20.7208 13.6863 20.7181 13.1476V13.146C20.7142 12.6455 20.7113 12.123 20.7091 11.5787C20.7052 10.5715 20.7036 10.0217 20.7036 9.91625C20.7036 9.47153 20.6663 9.03911 20.5911 8.61943C20.5164 8.20129 20.4048 7.79699 20.2569 7.4072L20.2578 7.40698L20.2569 7.40456C20.1051 7.00268 19.9265 6.62299 19.721 6.26682C19.5158 5.91152 19.2807 5.5727 19.0155 5.25124L19.0159 5.25102C18.7529 4.93505 18.4644 4.64238 18.1504 4.37277C17.8461 4.11174 17.5246 3.87707 17.1852 3.66811C17.1702 3.66042 17.1551 3.65229 17.1406 3.64328C16.7743 3.42268 16.3981 3.23525 16.0114 3.08276Z" fill="black" fill-opacity="0.5"/>
</g>
<defs>
<clipPath id="clip0_1_2476">
<rect width="25.7153" height="27" fill="white" transform="translate(0.5)"/>
</clipPath>
</defs>
</svg>
