<svg width="62" height="61" viewBox="0 0 62 61" fill="none" xmlns="http://www.w3.org/2000/svg">
<path d="M0.266846 30.5C0.266846 13.6553 13.9222 0 30.7668 0C47.6115 0 61.2668 13.6553 61.2668 30.5C61.2668 47.3447 47.6115 61 30.7668 61C13.9222 61 0.266846 47.3447 0.266846 30.5Z" fill="#286578"/>
<path d="M30.5 12C18.6267 12 9.00005 21.6547 9.00005 33.5738C8.98881 38.837 10.9099 43.9237 14.4037 47.882C14.5094 47.9976 14.6053 48.1132 14.711 48.2191C15.5575 49 15.8146 49 16.4865 49C17.1584 49 17.6 49 18.2719 48.2102C21.1834 44.7877 25.6625 43.3077 30.5 43.3077C35.3375 43.3077 39.8229 44.7939 42.7281 48.2102C43.4 49 43.8318 49 44.5135 49C45.1952 49 45.5258 49 46.289 48.2191C46.3983 48.1079 46.4906 47.9976 46.5963 47.882C50.0901 43.9237 52.0112 38.837 52 33.5738C52 21.6547 42.3733 12 30.5 12ZM29.0667 17.6923H31.9333V23.3846H29.0667V17.6923ZM20.4667 34.7692H14.7334V31.9231H20.4667V34.7692ZM22.3918 27.3087L18.3382 23.2832L20.3646 21.2713L24.4191 25.296L22.3918 27.3087ZM32.5246 35.0716C32.3505 35.3112 32.1388 35.5214 31.8975 35.6942C31.315 36.0977 30.5958 36.2567 29.896 36.137C29.1961 36.0172 28.5721 35.6282 28.1593 35.0544C27.7465 34.4807 27.5783 33.7684 27.6911 33.0723C27.804 32.3761 28.1888 31.7522 28.7621 31.3361L36.2333 27.6538L32.5246 35.0716ZM36.5809 25.296L40.6354 21.2713L42.6618 23.2832L38.6082 27.3087L36.5809 25.296ZM46.2666 34.7692H40.5333V31.9231H46.2666V34.7692Z" fill="white"/>
</svg>
