<svg width="62" height="61" viewBox="0 0 62 61" fill="none" xmlns="http://www.w3.org/2000/svg">
<path d="M0.533691 30.5C0.533691 13.6553 14.189 0 31.0337 0C47.8784 0 61.5337 13.6553 61.5337 30.5C61.5337 47.3447 47.8784 61 31.0337 61C14.189 61 0.533691 47.3447 0.533691 30.5Z" fill="#286578"/>
<path d="M39.9224 11.7759H21.1842C19.1144 11.7759 17.4365 13.4538 17.4365 15.5235V45.5046C17.4365 47.5744 19.1144 49.2523 21.1842 49.2523H39.9224C41.9921 49.2523 43.67 47.5744 43.67 45.5046V15.5235C43.67 13.4538 41.9921 11.7759 39.9224 11.7759Z" stroke="white" stroke-width="3.74764" stroke-linecap="round" stroke-linejoin="round"/>
<path d="M30.5532 41.7568H30.572" stroke="white" stroke-width="3.74764" stroke-linecap="round" stroke-linejoin="round"/>
</svg>
