<svg width="51" height="51" viewBox="0 0 51 51" fill="none" xmlns="http://www.w3.org/2000/svg">
<rect x="0.223022" y="0.617676" width="50.3423" height="50.3423" rx="25.1711" fill="#45268F"/>
<path d="M40.7239 38.4939C40.7239 38.4939 36.4482 31.1452 35.6812 29.8273C36.5538 29.5611 37.4834 29.326 37.8696 28.6591C38.5133 27.5479 37.3675 25.725 37.6684 24.5339C37.9783 23.308 39.8079 22.2473 39.8079 21.0013C39.8079 19.7873 37.9164 18.369 37.6062 17.1504C37.3033 15.9595 38.4456 14.1346 37.7999 13.0248C37.1541 11.9148 35.0032 12.006 34.1177 11.154C33.2067 10.2772 33.2095 8.132 32.1107 7.54443C31.0074 6.95467 29.2143 8.14658 27.9892 7.86424C26.7782 7.58513 25.6962 5.76172 24.4312 5.76172C23.1475 5.76172 21.1057 7.83009 20.7854 7.90453C19.561 8.18916 17.7656 7.00016 16.6635 7.59242C15.5657 8.18197 15.5724 10.3274 14.6631 11.2056C13.7791 12.0592 11.6281 11.9719 10.9843 13.0832C10.3406 14.1942 11.4864 16.0167 11.1856 17.2084C10.884 18.4031 8.99075 19.6136 8.99075 20.9953C8.99075 22.2415 10.8249 23.2989 11.1367 24.5241C11.4397 25.715 10.2974 27.5396 10.9432 28.6499C11.2947 29.2543 12.0924 29.5023 12.889 29.7408C12.982 29.7686 13.1578 29.8726 13.0387 30.0462C12.4937 30.9869 8.1072 38.5574 8.1072 38.5574C7.75824 39.1595 8.04162 39.6757 8.73673 39.7049L12.1392 39.8468C12.8343 39.8761 13.7063 40.3812 14.0774 40.9697L15.893 43.8507C16.264 44.4393 16.8527 44.4282 17.2016 43.8262C17.2016 43.8262 22.2816 35.0557 22.2837 35.0532C22.3856 34.9341 22.4881 34.9585 22.5371 35.0002C23.0929 35.4734 23.8678 35.9456 24.5145 35.9456C25.1487 35.9456 25.736 35.5011 26.3169 35.0055C26.3641 34.9652 26.4792 34.8826 26.5633 35.054C26.5647 35.0567 31.6391 43.7792 31.6391 43.7792C31.9889 44.3805 32.5777 44.3907 32.9476 43.8015L34.7581 40.917C35.1281 40.3281 35.9991 39.821 36.6943 39.7907L40.0964 39.6425C40.7912 39.612 41.0737 39.0951 40.7239 38.4939ZM30.0543 30.6046C26.2923 32.7932 21.7767 32.5587 18.3277 30.3832C13.2739 27.146 11.611 20.4495 14.6491 15.2058C17.7219 9.90159 24.4766 8.02998 29.8286 10.9448C29.8567 10.9601 29.8845 10.976 29.9124 10.9916C29.9521 11.0135 29.9916 11.0358 30.0311 11.0583C31.6822 12.0103 33.114 13.3918 34.1392 15.154C37.2726 20.5401 35.4402 27.4712 30.0543 30.6046Z" fill="white"/>
<path d="M29.1936 12.6431C29.178 12.6341 29.1622 12.6256 29.1466 12.6167C26.2876 10.962 22.6437 10.8411 19.5897 12.6178C15.0578 15.2544 13.5157 21.0863 16.1523 25.6182C16.9568 27.0011 18.0593 28.105 19.3313 28.8973C19.4394 28.9658 19.5488 29.0331 19.6606 29.0979C24.1975 31.7263 30.0263 30.1736 32.6545 25.637C35.2827 21.1002 33.7305 15.2715 29.1936 12.6431ZM30.3286 20.0597L28.74 21.6081C28.248 22.0876 27.9405 23.0341 28.0568 23.7114L28.4318 25.8977C28.548 26.5749 28.1455 26.8673 27.5373 26.5476L25.5738 25.5153C24.9656 25.1956 23.9704 25.1956 23.3622 25.5153L21.3988 26.5476C20.7906 26.8673 20.388 26.5749 20.5042 25.8977L20.8792 23.7114C20.9954 23.0341 20.6879 22.0876 20.1959 21.6081L18.6074 20.0597C18.1153 19.5802 18.2692 19.107 18.9491 19.0081L21.1443 18.6891C21.8242 18.5903 22.6293 18.0053 22.9334 17.3892L23.9151 15.4001C24.2192 14.784 24.7169 14.784 25.0209 15.4001L26.0027 17.3892C26.3068 18.0053 27.1118 18.5903 27.7918 18.6891L29.987 19.0081C30.6668 19.107 30.8206 19.5802 30.3286 20.0597Z" fill="white"/>
</svg>
