<svg width="52" height="51" viewBox="0 0 52 51" fill="none" xmlns="http://www.w3.org/2000/svg">
<rect x="0.956421" y="0.617676" width="50.3423" height="50.3423" rx="25.1711" fill="#CA9105"/>
<path d="M15.7913 37.7345H12.6053C12.2045 37.7345 11.8201 37.8937 11.5367 38.1771C11.2532 38.4606 11.094 38.845 11.094 39.2458C11.094 39.6466 11.2532 40.0311 11.5367 40.3145C11.8201 40.5979 12.2045 40.7572 12.6053 40.7572H36.7868C37.1877 40.7572 37.5721 40.5979 37.8555 40.3145C38.139 40.0311 38.2982 39.6466 38.2982 39.2458C38.2982 38.845 38.139 38.4606 37.8555 38.1771C37.5721 37.8937 37.1877 37.7345 36.7868 37.7345H33.6009C33.2276 33.542 31.9823 26.2331 27.8185 24.1324C31.6936 21.9817 33.0372 16.8628 33.5072 13.553H36.7868C37.1877 13.553 37.5721 13.3937 37.8555 13.1103C38.139 12.8269 38.2982 12.4425 38.2982 12.0416C38.2982 11.6408 38.139 11.2564 37.8555 10.9729C37.5721 10.6895 37.1877 10.5303 36.7868 10.5303H12.6053C12.2045 10.5303 11.8201 10.6895 11.5367 10.9729C11.2532 11.2564 11.094 11.6408 11.094 12.0416C11.094 12.4425 11.2532 12.8269 11.5367 13.1103C11.8201 13.3937 12.2045 13.553 12.6053 13.553H15.885C16.355 16.8628 17.6986 21.9817 21.5737 24.1324C17.4099 26.2331 16.1646 33.542 15.7913 37.7345ZM20.1621 32.5959C20.1621 30.7823 24.6961 27.1551 24.6961 27.1551C24.6961 27.1551 29.2301 30.7823 29.2301 32.5959V37.7345H20.1621V32.5959Z" fill="white"/>
</svg>
